<svg viewBox="0 0 512 512" xml:space="preserve" xmlns="http://www.w3.org/2000/svg"><path d="M-733.623 72.268c0 203.805-165.217 369.021-369.022 369.021-203.805 0-369.021-165.216-369.021-369.021s165.216-369.021 369.021-369.021 369.022 165.216 369.022 369.02z" transform="matrix(.69373 0 0 .69373 1020.934 205.866)" fill="#ad5f5f" fill-opacity="1" fill-rule="nonzero" stroke="none" class="fill-5382a1"></path><g fill="#ffffff" fill-opacity="1" class="fill-ffffff"><path d="M4838.81 3460.294s-14.177 8.245 10.09 11.035c29.4 3.353 44.427 2.872 76.826-3.26 0 0 8.518 5.342 20.414 9.968-72.63 31.128-164.376-1.803-107.33-17.743M4829.936 3419.673s-15.902 11.772 8.384 14.284c31.406 3.24 56.208 3.504 99.125-4.76 0 0 5.936 6.018 15.27 9.31-87.814 25.677-185.623 2.024-122.78-18.834M4904.755 3350.769c17.896 20.604-4.702 39.145-4.702 39.145s45.44-23.459 24.572-52.834c-19.491-27.393-34.438-41.004 46.479-87.933 0 0-127.013 31.721-66.35 101.621" transform="matrix(.92989 0 0 .92989 -4288.818 -2885.048)" fill="#ffffff" fill-opacity="1" class="fill-ffffff"></path><path d="M5000.814 3490.338s10.492 8.645-11.555 15.333c-41.923 12.7-174.488 16.536-211.314.507-13.238-5.76 11.587-13.752 19.396-15.429 8.144-1.765 12.798-1.436 12.798-1.436-14.722-10.372-95.157 20.363-40.857 29.165 148.084 24.016 269.943-10.813 231.532-28.14M4845.629 3377.586s-67.431 16.017-23.88 21.833c18.39 2.461 55.048 1.904 89.194-.957 27.906-2.354 55.927-7.359 55.927-7.359s-9.84 4.214-16.96 9.075c-68.474 18.01-200.755 9.631-162.673-8.79 32.206-15.568 58.392-13.802 58.392-13.802M4966.592 3445.2c69.608-36.17 37.424-70.93 14.96-66.247-5.506 1.145-7.961 2.138-7.961 2.138s2.044-3.201 5.948-4.587c44.44-15.625 78.619 46.08-14.346 70.52 0 0 1.077-.963 1.399-1.824M4924.625 3173.369s38.55 38.562-36.563 97.861c-60.233 47.569-13.735 74.69-.025 105.679-35.16-31.723-60.961-59.648-43.651-85.638 25.407-38.15 95.793-56.648 80.239-117.903" transform="matrix(.92989 0 0 .92989 -4288.818 -2885.048)" fill="#ffffff" fill-opacity="1" class="fill-ffffff"></path><path d="M4852.469 3543.215c66.815 4.277 169.417-2.373 171.847-33.988 0 0-4.671 11.986-55.22 21.504-57.027 10.731-127.363 9.478-169.08 2.6 0 0 8.54 7.069 52.453 9.885" transform="matrix(.92989 0 0 .92989 -4288.818 -2885.048)" fill="#ffffff" fill-opacity="1" class="fill-ffffff"></path></g></svg>